<?xml version="1.0" encoding="utf-8"?>
<!-- Generator: Adobe Illustrator 16.0.0, SVG Export Plug-In . SVG Version: 6.00 Build 0)  -->
<!DOCTYPE svg PUBLIC "-//W3C//DTD SVG 1.1//EN" "http://www.w3.org/Graphics/SVG/1.1/DTD/svg11.dtd">
<svg version="1.1" id="Layer_1" xmlns="http://www.w3.org/2000/svg" xmlns:xlink="http://www.w3.org/1999/xlink" x="0px" y="0px"
	 width="841.89px" height="595.28px" viewBox="0 0 841.89 595.28" enable-background="new 0 0 841.89 595.28" xml:space="preserve">
<g>
	<g>
		<defs>
			<rect id="SVGID_1_" x="147.652" y="37.28" width="544.695" height="522"/>
		</defs>
		<use xlink:href="#SVGID_1_"  overflow="visible" fill="#FFFFFF"/>
		<clipPath id="SVGID_2_">
			<use xlink:href="#SVGID_1_"  overflow="visible"/>
		</clipPath>
		<path clip-path="url(#SVGID_2_)" fill="#FFFFFF" d="M618.72,368.229l73.052-217.515c1.152-3.463,0.576-7.275-1.596-10.24
			c-2.128-2.926-5.541-4.654-9.176-4.654H269.503l-14.628-59.083c-5.319-18.85-22.695-32.016-42.2-32.016H159
			c-6.256,0-11.348,4.97-11.348,11.348c0,6.211,5.092,11.348,11.348,11.348h53.675c9.409,0,17.831,6.339,20.225,15.071
			l90.644,365.175c-22.391,6.87-37.673,27.527-37.673,50.977c0,29.256,23.837,53.192,53.232,53.192
			c29.25,0,53.11-23.937,53.11-53.192c0-11.348-3.558-21.897-9.536-30.542h180.191c-6.117,8.645-9.663,19.194-9.663,30.542
			c0,29.256,23.848,53.192,53.148,53.192c29.39,0,53.193-23.937,53.193-53.192c0-29.39-23.804-53.237-53.193-53.237
			c-0.487,0-1.063,0-1.507,0.133c-0.222-0.133-0.443-0.133-0.665-0.133H346.377l-17.298-69.328h278.825
			C612.78,376.075,617.124,372.884,618.72,368.229L618.72,368.229z M618.72,368.229"/>
	</g>
</g>
</svg>
