<?xml version="1.0" encoding="utf-8"?>
<!-- Generator: Adobe Illustrator 16.0.0, SVG Export Plug-In . SVG Version: 6.00 Build 0)  -->
<!DOCTYPE svg PUBLIC "-//W3C//DTD SVG 1.1//EN" "http://www.w3.org/Graphics/SVG/1.1/DTD/svg11.dtd">
<svg version="1.1" id="Layer_1" xmlns="http://www.w3.org/2000/svg" xmlns:xlink="http://www.w3.org/1999/xlink" x="0px" y="0px"
	 width="64px" height="64px" viewBox="0 0 64 64" enable-background="new 0 0 64 64" xml:space="preserve">
<path id="id_107" fill="#FFFFFF" d="M61.58,12.88c-0.187-0.242-0.426-0.438-0.699-0.573C60.606,12.171,60.305,12.101,60,12.1H14.26
	l-2.37-6.95c-0.134-0.396-0.388-0.739-0.727-0.983C10.824,3.923,10.417,3.791,10,3.79H4C3.47,3.79,2.961,4,2.586,4.376
	C2.211,4.751,2,5.26,2,5.79s0.211,1.039,0.586,1.414C2.961,7.58,3.47,7.79,4,7.79h4.57l13.15,38.649
	c0.135,0.395,0.39,0.736,0.729,0.979c0.338,0.242,0.744,0.371,1.161,0.372H52c0.53,0,1.039-0.211,1.414-0.586S54,46.32,54,45.79
	s-0.211-1.039-0.586-1.414S52.53,43.79,52,43.79H25l-1.46-4.31H54c0.441,0.002,0.871-0.143,1.222-0.41s0.604-0.645,0.718-1.07
	l6-23.38c0.078-0.298,0.087-0.61,0.024-0.912C61.901,13.406,61.77,13.123,61.58,12.88L61.58,12.88z"/>
<path id="id_108" fill="#FFFFFF" d="M30,49.49c-7.08,0.221-7.08,10.49,0,10.721C37.08,60,37.08,49.711,30,49.49z"/>
<path id="id_109" fill="#FFFFFF" d="M47.41,49.49c-7.08,0.221-7.08,10.49,0,10.721C54.49,60,54.49,49.711,47.41,49.49z"/>
</svg>
